<svg xmlns="http://www.w3.org/2000/svg" viewBox="0 0 300 568"><defs><style>.cls-1{fill:#98f9ef;}.cls-2,.cls-4{fill:#fff;stroke:#fff;}.cls-2{stroke-linecap:round;stroke-miterlimit:10;stroke-width:5.2px;}.cls-3{fill:#ffda00;stroke:#ffda00;}.cls-3,.cls-4{stroke-width:1.73px;}.cls-5{fill:#f76b6b;}.cls-6{fill:#2de08a;}</style></defs><title>calculatrice_enfant-05</title><g id="Calque_2" data-name="Calque 2"><path class="cls-1" d="M11.57,308.71c-1.63.46,17.2-36.9,35.35-12.76S86,312.36,81,348.35s-26.65,37.81-41.8,28.25S4,344.69,9.49,333.31,11.57,308.71,11.57,308.71Z"/><line class="cls-2" x1="54.15" y1="327.08" x2="37.62" y2="343.61"/><line class="cls-2" x1="54.15" y1="343.61" x2="37.62" y2="327.08"/><path class="cls-1" d="M217.57,22.71c-1.63.46,17.2-36.9,35.35-12.76S292,26.36,287,62.35s-26.65,37.81-41.8,28.25S210,58.69,215.49,47.31,217.57,22.71,217.57,22.71Z"/><line class="cls-2" x1="260.15" y1="41.08" x2="243.62" y2="57.61"/><line class="cls-2" x1="260.15" y1="57.61" x2="243.62" y2="41.08"/><path class="cls-3" d="M94.54,199.56c-6.71,22.19-1.4,24.14-27,30.36s-22.48-.78-33.39-4.67,12.67-62.68,22.29-64.62,32.34-7.4,34.41,0S94.54,199.56,94.54,199.56Z"/><line class="cls-2" x1="78.4" y1="194.64" x2="55.01" y2="194.64"/><circle class="cls-4" cx="66.7" cy="185.63" r="2.43"/><circle class="cls-4" cx="66.7" cy="203.65" r="2.43"/><path class="cls-3" d="M240.54,140.56c-6.71,22.19-1.4,24.14-27,30.36s-22.48-.78-33.39-4.67,12.67-62.68,22.29-64.62,32.34-7.4,34.41,0S240.54,140.56,240.54,140.56Z"/><line class="cls-2" x1="224.4" y1="135.64" x2="201.01" y2="135.64"/><circle class="cls-4" cx="212.7" cy="126.63" r="2.43"/><circle class="cls-4" cx="212.7" cy="144.65" r="2.43"/><path class="cls-3" d="M290.54,518.56c-6.71,22.19-1.4,24.14-27,30.36s-22.48-.78-33.39-4.67,12.67-62.68,22.29-64.62,32.34-7.4,34.41,0S290.54,518.56,290.54,518.56Z"/><line class="cls-2" x1="274.4" y1="513.64" x2="251.01" y2="513.64"/><circle class="cls-4" cx="262.7" cy="504.63" r="2.43"/><circle class="cls-4" cx="262.7" cy="522.65" r="2.43"/><path class="cls-1" d="M94.12,451.71c-1.63.46,17.2-36.9,35.35-12.76s39.13,16.4,34.1,52.39-26.65,37.81-41.8,28.25S86.59,487.69,92,476.31,94.12,451.71,94.12,451.71Z"/><line class="cls-2" x1="136.71" y1="470.08" x2="120.17" y2="486.61"/><line class="cls-2" x1="136.71" y1="486.61" x2="120.17" y2="470.08"/><path class="cls-3" d="M169.27,373.56c-6.71,22.19-1.4,24.14-27,30.36s-22.48-.78-33.39-4.67,12.67-62.68,22.29-64.62,32.34-7.4,34.41,0S169.27,373.56,169.27,373.56Z"/><line class="cls-2" x1="153.12" y1="368.64" x2="129.74" y2="368.64"/><circle class="cls-4" cx="141.43" cy="359.63" r="2.43"/><circle class="cls-4" cx="141.43" cy="377.65" r="2.43"/><path class="cls-5" d="M53.84,8.84S3.55-3,9,27,22.75,81.45,53.84,74.47s15.69-5.59,0-24.44,36.78-3.49,36.38-20.95S53.84,8.84,53.84,8.84Z"/><line class="cls-2" x1="38.14" y1="20.65" x2="38.14" y2="44.03"/><line class="cls-2" x1="49.83" y1="32.34" x2="26.45" y2="32.34"/><path class="cls-6" d="M135,126.89c-26.49,20.24-50.7,10.12-58.84-6.27s8-45.17,18.59-55.17c6.09-5.75,31.08-18.94,32.67-7.39,4,28.71,8.51,25.43,13,25C154.48,81.56,161.54,106.65,135,126.89Z"/><line class="cls-2" x1="122.05" y1="100.4" x2="102.38" y2="100.4"/><path class="cls-6" d="M270,290.89c-26.49,20.24-50.7,10.12-58.84-6.27s8-45.17,18.59-55.17c6.09-5.75,31.08-18.94,32.67-7.39,4,28.71,8.51,25.43,13,25C289.48,245.56,296.54,270.65,270,290.89Z"/><line class="cls-2" x1="257.05" y1="264.4" x2="237.38" y2="264.4"/><path class="cls-5" d="M142.51,231.84S92.22,220,97.65,250s13.77,54.46,44.86,47.48,15.69-5.59,0-24.44,36.78-3.49,36.38-20.95S142.51,231.84,142.51,231.84Z"/><line class="cls-2" x1="126.81" y1="243.65" x2="126.81" y2="267.03"/><line class="cls-2" x1="138.5" y1="255.34" x2="115.12" y2="255.34"/><path class="cls-5" d="M246.51,380.84S196.22,369,201.65,399s13.77,54.46,44.86,47.48,15.69-5.59,0-24.44,36.78-3.49,36.38-20.95S246.51,380.84,246.51,380.84Z"/><line class="cls-2" x1="230.81" y1="392.65" x2="230.81" y2="416.03"/><line class="cls-2" x1="242.5" y1="404.34" x2="219.12" y2="404.34"/><path class="cls-6" d="M70.64,544.89C44.14,565.14,19.94,555,11.8,538.63s8-45.17,18.59-55.17c6.09-5.75,31.08-18.94,32.67-7.39,4,28.71,8.51,25.43,13,25C90.07,499.56,97.13,524.65,70.64,544.89Z"/><line class="cls-2" x1="57.64" y1="518.4" x2="37.97" y2="518.4"/></g></svg>